<svg width="419" height="82" viewBox="0 0 419 82" fill="none" xmlns="http://www.w3.org/2000/svg">
<mask id="mask0_4_127" style="mask-type:alpha" maskUnits="userSpaceOnUse" x="2" y="0" width="417" height="82">
<path d="M6.72801 33.5584C8.29039 22.3092 9.07159 16.6846 12.9091 13.2598C16.7467 9.83504 22.4236 9.69624 33.7774 9.41865L390.316 0.70133C403.809 0.371421 410.556 0.206466 414.778 4.32673C419 8.447 419 15.1957 419 28.693V54C419 67.1993 419 73.799 414.899 77.8995C410.799 82 404.199 82 391 82H32.1576C17.1896 82 9.70551 82 5.52034 77.1934C1.33517 72.3868 2.36474 64.9739 4.42388 50.1481L6.72801 33.5584Z" fill="white"/>
</mask>
<g mask="url(#mask0_4_127)">
<path d="M8.364 21.7792C9.30745 14.9863 15.0327 9.87695 21.8887 9.70932L404.658 0.350665C412.521 0.158401 419 6.48051 419 14.3465V68C419 75.732 412.732 82 405 82H16.0788C7.58107 82 1.04292 74.491 2.21194 66.074L8.364 21.7792Z" fill="#FF87DD"/>
<g filter="url(#filter0_f_4_127)">
<ellipse cx="381.372" cy="-47.4564" rx="148.372" ry="250.544" fill="#EE89FF"/>
</g>
<g filter="url(#filter1_f_4_127)">
<ellipse cx="396.051" cy="37.4219" rx="125.318" ry="211.615" fill="#FF44F8"/>
</g>
<g filter="url(#filter2_f_4_127)">
<ellipse cx="86.895" cy="-1.50696" rx="148.372" ry="250.544" fill="#A431FF"/>
</g>
<g filter="url(#filter3_f_4_127)">
<ellipse cx="125.909" cy="-338.893" rx="199.208" ry="336.387" fill="#6631FF"/>
</g>
</g>
<defs>
<filter id="filter0_f_4_127" x="32.0186" y="-498.981" width="698.706" height="903.05" filterUnits="userSpaceOnUse" color-interpolation-filters="sRGB">
<feFlood flood-opacity="0" result="BackgroundImageFix"/>
<feBlend mode="normal" in="SourceGraphic" in2="BackgroundImageFix" result="shape"/>
<feGaussianBlur stdDeviation="100.491" result="effect1_foregroundBlur_4_127"/>
</filter>
<filter id="filter1_f_4_127" x="69.7523" y="-375.174" width="652.598" height="825.192" filterUnits="userSpaceOnUse" color-interpolation-filters="sRGB">
<feFlood flood-opacity="0" result="BackgroundImageFix"/>
<feBlend mode="normal" in="SourceGraphic" in2="BackgroundImageFix" result="shape"/>
<feGaussianBlur stdDeviation="100.491" result="effect1_foregroundBlur_4_127"/>
</filter>
<filter id="filter2_f_4_127" x="-262.458" y="-453.032" width="698.706" height="903.05" filterUnits="userSpaceOnUse" color-interpolation-filters="sRGB">
<feFlood flood-opacity="0" result="BackgroundImageFix"/>
<feBlend mode="normal" in="SourceGraphic" in2="BackgroundImageFix" result="shape"/>
<feGaussianBlur stdDeviation="100.491" result="effect1_foregroundBlur_4_127"/>
</filter>
<filter id="filter3_f_4_127" x="-274.28" y="-876.261" width="800.379" height="1074.74" filterUnits="userSpaceOnUse" color-interpolation-filters="sRGB">
<feFlood flood-opacity="0" result="BackgroundImageFix"/>
<feBlend mode="normal" in="SourceGraphic" in2="BackgroundImageFix" result="shape"/>
<feGaussianBlur stdDeviation="100.491" result="effect1_foregroundBlur_4_127"/>
</filter>
</defs>
</svg>
