<svg width="156" height="24" viewBox="0 0 156 24" fill="none" xmlns="http://www.w3.org/2000/svg">
<path d="M10.2875 8.66768L10.9018 10.0516L12.3473 13.22L12.6364 13.8027H18.5269V18.9014H12.1305C8.62511 18.3915 5.98704 15.4416 5.98704 12.0182C5.98704 8.55842 8.62511 5.6085 12.1305 5.09864H23.5501V0H13.1785C9.92608 0 6.89049 1.23824 4.6138 3.45979C2.26483 5.75417 1 8.77694 1 12.0182C1 15.2595 2.26483 18.2822 4.6138 20.5402C6.89049 22.7982 9.92608 24 13.1785 24H23.6224V13.8027V8.66768H10.2875ZM39.1106 0.0364178C32.5335 0.0364178 27.2212 5.4264 27.2212 12.0182C27.2212 18.6464 32.5335 24 39.1106 24C45.6516 24 51 18.6464 51 12.0182C51 5.4264 45.6516 0.0364178 39.1106 0.0364178ZM46.013 12.0182C46.013 15.8786 42.9051 19.0106 39.1106 19.0106C35.28 19.0106 32.1721 15.8786 32.1721 12.0182C32.1721 8.19423 35.28 5.06222 39.1106 5.06222C42.9051 5.06222 46.013 8.19423 46.013 12.0182Z" fill="url(#paint0_linear_2_241)"/>
<path d="M67.0485 24V8.76993H62.0021V24H67.0485ZM54 0.180451V5.23308H62.0021H67.0485H75.4471V0.180451H54ZM79.0629 0.180451V1.1188V5.23308H100.33V0.180451H79.0629ZM84.1093 13.8226H98.2031V8.76993H84.1093L79.0629 8.73384V18.9474V19.8857V24H100.33V18.9474H84.1093V13.8226ZM103.897 22.5925L103.141 24H109.485L109.737 23.5308L114.891 14.1835L111.719 8.4812L103.897 22.5925ZM129.922 22.5925L119.83 4.36692L117.739 0.613535L117.523 0.108269H116.297L116.045 0.613535L113.99 4.36692L113.738 4.83609L116.91 10.5744L116.982 10.7188L119.325 14.9414L124.083 23.5308L124.335 24H130.679L129.922 22.5925ZM133.589 24H138.635V15.9519L133.589 10.8992V24ZM153.919 0L144.367 9.56391L139.645 4.83609L134.815 0H133.589V5.9188L138.635 10.9714L140.978 13.3173L144.367 16.7098L145.051 16.0602L145.953 15.1218L146.241 14.8331L147.286 13.8226L149.954 11.1158V24H155V0H153.919Z" fill="white"/>
<defs>
<linearGradient id="paint0_linear_2_241" x1="6.5" y1="-1.73859e-07" x2="46" y2="21" gradientUnits="userSpaceOnUse">
<stop stop-color="#FF008A"/>
<stop offset="1" stop-color="#7000FF"/>
</linearGradient>
</defs>
</svg>
