<svg width="179" height="24" viewBox="0 0 179 24" fill="none" xmlns="http://www.w3.org/2000/svg">
<path d="M11.8042 8.66768L12.5091 10.0516L14.1678 13.22L14.4995 13.8027H21.2585V18.9014H13.919C9.89679 18.3915 6.86977 15.4416 6.86977 12.0182C6.86977 8.55842 9.89679 5.6085 13.919 5.09864H27.0223V0H15.1215C11.3896 0 7.90642 1.23824 5.29406 3.45979C2.59877 5.75417 1.14746 8.77694 1.14746 12.0182C1.14746 15.2595 2.59877 18.2822 5.29406 20.5402C7.90642 22.7982 11.3896 24 15.1215 24H27.1052V13.8027V8.66768H11.8042ZM44.8769 0.0364178C37.3301 0.0364178 31.2346 5.4264 31.2346 12.0182C31.2346 18.6464 37.3301 24 44.8769 24C52.3823 24 58.5193 18.6464 58.5193 12.0182C58.5193 5.4264 52.3823 0.0364178 44.8769 0.0364178ZM52.7969 12.0182C52.7969 15.8786 49.2309 19.0106 44.8769 19.0106C40.4815 19.0106 36.9155 15.8786 36.9155 12.0182C36.9155 8.19423 40.4815 5.06222 44.8769 5.06222C49.2309 5.06222 52.7969 8.19423 52.7969 12.0182Z" fill="url(#paint0_linear_70_2440)"/>
<path d="M76.9338 24V8.76992H71.1434V24H76.9338ZM61.9615 0.180451V5.23308H71.1434H76.9338H86.5707V0.180451H61.9615ZM90.7197 0.180451V1.1188V5.23308H115.122V0.180451H90.7197ZM96.5101 13.8226H112.682V8.76992H96.5101L90.7197 8.73384V18.9474V19.8857V24H115.122V18.9474H96.5101V13.8226ZM119.216 22.5925L118.347 24H125.627L125.916 23.5308L131.83 14.1835L128.191 8.4812L119.216 22.5925ZM149.078 22.5925L137.497 4.36692L135.098 0.613535L134.85 0.108269H133.444L133.154 0.613535L130.796 4.36692L130.507 4.83609L134.147 10.5744L134.229 10.7188L136.918 14.9414L142.377 23.5308L142.667 24H149.946L149.078 22.5925ZM153.285 24H159.075V15.9519L153.285 10.8992V24ZM176.612 0L165.651 9.56391L160.233 4.83609L154.691 0H153.285V5.9188L159.075 10.9714L161.764 13.3173L165.651 16.7098L166.437 16.0602L167.471 15.1218L167.802 14.8331L169.002 13.8226L172.062 11.1158V24H177.853V0H176.612Z" fill="#000022"/>
<defs>
<linearGradient id="paint0_linear_70_2440" x1="7.45836" y1="-1.73859e-07" x2="49.8261" y2="25.8456" gradientUnits="userSpaceOnUse">
<stop stop-color="#B82C77"/>
<stop offset="1" stop-color="#7000FF"/>
</linearGradient>
</defs>
</svg>
